<mxfile host="app.diagrams.net" agent="Mozilla/5.0 (Windows NT 10.0; Win64; x64) AppleWebKit/537.36 (KHTML, like Gecko) Chrome/133.0.0.0 Safari/537.36 Edg/133.0.0.0" version="26.0.16">
  <diagram name="第 1 页" id="D9JgrVOwK0mvOwhrmqaS">
    <mxGraphModel dx="1306" dy="498" grid="0" gridSize="10" guides="1" tooltips="1" connect="1" arrows="1" fold="1" page="0" pageScale="1" pageWidth="827" pageHeight="1169" math="0" shadow="0">
      <root>
        <mxCell id="0" />
        <mxCell id="1" parent="0" />
        <mxCell id="EDPaD9Az1uUJM7cs_bUE-3" value="用户" style="rounded=0;whiteSpace=wrap;html=1;" vertex="1" parent="1">
          <mxGeometry x="17" y="207.5" width="89" height="46" as="geometry" />
        </mxCell>
        <mxCell id="EDPaD9Az1uUJM7cs_bUE-11" style="rounded=0;orthogonalLoop=1;jettySize=auto;html=1;endArrow=none;startFill=0;entryX=0.5;entryY=0;entryDx=0;entryDy=0;" edge="1" parent="1" source="EDPaD9Az1uUJM7cs_bUE-5" target="EDPaD9Az1uUJM7cs_bUE-3">
          <mxGeometry relative="1" as="geometry" />
        </mxCell>
        <mxCell id="EDPaD9Az1uUJM7cs_bUE-5" value="用户id" style="ellipse;whiteSpace=wrap;html=1;" vertex="1" parent="1">
          <mxGeometry x="-122" y="131.5" width="75" height="45" as="geometry" />
        </mxCell>
        <mxCell id="EDPaD9Az1uUJM7cs_bUE-12" style="rounded=0;orthogonalLoop=1;jettySize=auto;html=1;entryX=0.5;entryY=0;entryDx=0;entryDy=0;endArrow=none;startFill=0;" edge="1" parent="1" source="EDPaD9Az1uUJM7cs_bUE-6" target="EDPaD9Az1uUJM7cs_bUE-3">
          <mxGeometry relative="1" as="geometry" />
        </mxCell>
        <mxCell id="EDPaD9Az1uUJM7cs_bUE-6" value="名称" style="ellipse;whiteSpace=wrap;html=1;" vertex="1" parent="1">
          <mxGeometry x="-47" y="96.5" width="75" height="45" as="geometry" />
        </mxCell>
        <mxCell id="EDPaD9Az1uUJM7cs_bUE-13" style="rounded=0;orthogonalLoop=1;jettySize=auto;html=1;endArrow=none;startFill=0;" edge="1" parent="1" source="EDPaD9Az1uUJM7cs_bUE-7" target="EDPaD9Az1uUJM7cs_bUE-3">
          <mxGeometry relative="1" as="geometry" />
        </mxCell>
        <mxCell id="EDPaD9Az1uUJM7cs_bUE-7" value="权限" style="ellipse;whiteSpace=wrap;html=1;" vertex="1" parent="1">
          <mxGeometry x="41" y="72.5" width="75" height="45" as="geometry" />
        </mxCell>
        <mxCell id="EDPaD9Az1uUJM7cs_bUE-16" style="rounded=0;orthogonalLoop=1;jettySize=auto;html=1;endArrow=none;startFill=0;entryX=0.5;entryY=0;entryDx=0;entryDy=0;" edge="1" parent="1" target="EDPaD9Az1uUJM7cs_bUE-3">
          <mxGeometry relative="1" as="geometry">
            <mxPoint x="146.66097801773003" y="145.3684303013681" as="sourcePoint" />
          </mxGeometry>
        </mxCell>
        <mxCell id="EDPaD9Az1uUJM7cs_bUE-8" value="密码" style="ellipse;whiteSpace=wrap;html=1;" vertex="1" parent="1">
          <mxGeometry x="136" y="114" width="75" height="45" as="geometry" />
        </mxCell>
        <mxCell id="EDPaD9Az1uUJM7cs_bUE-32" style="rounded=0;orthogonalLoop=1;jettySize=auto;html=1;endArrow=none;startFill=0;" edge="1" parent="1" source="EDPaD9Az1uUJM7cs_bUE-17" target="EDPaD9Az1uUJM7cs_bUE-3">
          <mxGeometry relative="1" as="geometry" />
        </mxCell>
        <mxCell id="EDPaD9Az1uUJM7cs_bUE-17" value="日志" style="rounded=0;whiteSpace=wrap;html=1;" vertex="1" parent="1">
          <mxGeometry x="-119" y="341.5" width="89" height="45" as="geometry" />
        </mxCell>
        <mxCell id="EDPaD9Az1uUJM7cs_bUE-21" style="rounded=0;orthogonalLoop=1;jettySize=auto;html=1;entryX=0;entryY=0.5;entryDx=0;entryDy=0;endArrow=none;startFill=0;" edge="1" parent="1" source="EDPaD9Az1uUJM7cs_bUE-18" target="EDPaD9Az1uUJM7cs_bUE-17">
          <mxGeometry relative="1" as="geometry" />
        </mxCell>
        <mxCell id="EDPaD9Az1uUJM7cs_bUE-18" value="日志id" style="ellipse;whiteSpace=wrap;html=1;" vertex="1" parent="1">
          <mxGeometry x="-222" y="235.5" width="75" height="45" as="geometry" />
        </mxCell>
        <mxCell id="EDPaD9Az1uUJM7cs_bUE-22" value="" style="rounded=0;orthogonalLoop=1;jettySize=auto;html=1;endArrow=none;startFill=0;" edge="1" parent="1" source="EDPaD9Az1uUJM7cs_bUE-19">
          <mxGeometry relative="1" as="geometry">
            <mxPoint x="-119" y="366.5" as="targetPoint" />
          </mxGeometry>
        </mxCell>
        <mxCell id="EDPaD9Az1uUJM7cs_bUE-19" value="用户id" style="ellipse;whiteSpace=wrap;html=1;" vertex="1" parent="1">
          <mxGeometry x="-266" y="304.5" width="75" height="45" as="geometry" />
        </mxCell>
        <mxCell id="EDPaD9Az1uUJM7cs_bUE-26" style="rounded=0;orthogonalLoop=1;jettySize=auto;html=1;entryX=0;entryY=0.5;entryDx=0;entryDy=0;endArrow=none;startFill=0;" edge="1" parent="1" target="EDPaD9Az1uUJM7cs_bUE-17">
          <mxGeometry relative="1" as="geometry">
            <mxPoint x="-175.69862628722558" y="388.1660942863439" as="sourcePoint" />
          </mxGeometry>
        </mxCell>
        <mxCell id="EDPaD9Az1uUJM7cs_bUE-20" value="操作" style="ellipse;whiteSpace=wrap;html=1;" vertex="1" parent="1">
          <mxGeometry x="-248" y="373.5" width="75" height="45" as="geometry" />
        </mxCell>
        <mxCell id="EDPaD9Az1uUJM7cs_bUE-33" value="n" style="text;html=1;align=center;verticalAlign=middle;resizable=0;points=[];autosize=1;strokeColor=none;fillColor=none;" vertex="1" parent="1">
          <mxGeometry x="-98" y="307.5" width="25" height="26" as="geometry" />
        </mxCell>
        <mxCell id="EDPaD9Az1uUJM7cs_bUE-34" value="1" style="text;html=1;align=center;verticalAlign=middle;resizable=0;points=[];autosize=1;strokeColor=none;fillColor=none;" vertex="1" parent="1">
          <mxGeometry x="-13" y="242.5" width="25" height="26" as="geometry" />
        </mxCell>
        <mxCell id="EDPaD9Az1uUJM7cs_bUE-58" value="" style="rounded=0;orthogonalLoop=1;jettySize=auto;html=1;endArrow=none;startFill=0;" edge="1" parent="1" source="EDPaD9Az1uUJM7cs_bUE-35" target="EDPaD9Az1uUJM7cs_bUE-38">
          <mxGeometry relative="1" as="geometry" />
        </mxCell>
        <mxCell id="EDPaD9Az1uUJM7cs_bUE-59" style="rounded=0;orthogonalLoop=1;jettySize=auto;html=1;endArrow=none;startFill=0;" edge="1" parent="1" source="EDPaD9Az1uUJM7cs_bUE-35" target="EDPaD9Az1uUJM7cs_bUE-37">
          <mxGeometry relative="1" as="geometry" />
        </mxCell>
        <mxCell id="EDPaD9Az1uUJM7cs_bUE-62" style="rounded=0;orthogonalLoop=1;jettySize=auto;html=1;exitX=0.5;exitY=1;exitDx=0;exitDy=0;endArrow=none;startFill=0;" edge="1" parent="1" source="EDPaD9Az1uUJM7cs_bUE-35" target="EDPaD9Az1uUJM7cs_bUE-36">
          <mxGeometry relative="1" as="geometry" />
        </mxCell>
        <mxCell id="EDPaD9Az1uUJM7cs_bUE-64" style="rounded=0;orthogonalLoop=1;jettySize=auto;html=1;entryX=0;entryY=0.5;entryDx=0;entryDy=0;exitX=0.5;exitY=1;exitDx=0;exitDy=0;endArrow=none;startFill=0;" edge="1" parent="1" source="EDPaD9Az1uUJM7cs_bUE-35" target="EDPaD9Az1uUJM7cs_bUE-55">
          <mxGeometry relative="1" as="geometry" />
        </mxCell>
        <mxCell id="EDPaD9Az1uUJM7cs_bUE-65" style="rounded=0;orthogonalLoop=1;jettySize=auto;html=1;exitX=0.5;exitY=1;exitDx=0;exitDy=0;endArrow=none;startFill=0;" edge="1" parent="1" source="EDPaD9Az1uUJM7cs_bUE-35" target="EDPaD9Az1uUJM7cs_bUE-39">
          <mxGeometry relative="1" as="geometry" />
        </mxCell>
        <mxCell id="EDPaD9Az1uUJM7cs_bUE-83" style="rounded=0;orthogonalLoop=1;jettySize=auto;html=1;entryX=0;entryY=0.5;entryDx=0;entryDy=0;endArrow=none;startFill=0;" edge="1" parent="1" source="EDPaD9Az1uUJM7cs_bUE-35" target="EDPaD9Az1uUJM7cs_bUE-50">
          <mxGeometry relative="1" as="geometry" />
        </mxCell>
        <mxCell id="EDPaD9Az1uUJM7cs_bUE-35" value="商户" style="rounded=0;whiteSpace=wrap;html=1;" vertex="1" parent="1">
          <mxGeometry x="305" y="423" width="109" height="45" as="geometry" />
        </mxCell>
        <mxCell id="EDPaD9Az1uUJM7cs_bUE-36" value="商户id" style="ellipse;whiteSpace=wrap;html=1;" vertex="1" parent="1">
          <mxGeometry x="156" y="512" width="75" height="45" as="geometry" />
        </mxCell>
        <mxCell id="EDPaD9Az1uUJM7cs_bUE-37" value="商户类型" style="ellipse;whiteSpace=wrap;html=1;" vertex="1" parent="1">
          <mxGeometry x="242" y="531" width="75" height="45" as="geometry" />
        </mxCell>
        <mxCell id="EDPaD9Az1uUJM7cs_bUE-38" value="商户名称" style="ellipse;whiteSpace=wrap;html=1;" vertex="1" parent="1">
          <mxGeometry x="336" y="533" width="75" height="45" as="geometry" />
        </mxCell>
        <mxCell id="EDPaD9Az1uUJM7cs_bUE-39" value="商户地址" style="ellipse;whiteSpace=wrap;html=1;" vertex="1" parent="1">
          <mxGeometry x="426" y="528" width="75" height="45" as="geometry" />
        </mxCell>
        <mxCell id="EDPaD9Az1uUJM7cs_bUE-48" style="rounded=0;orthogonalLoop=1;jettySize=auto;html=1;endArrow=none;startFill=0;" edge="1" parent="1" source="EDPaD9Az1uUJM7cs_bUE-44" target="EDPaD9Az1uUJM7cs_bUE-45">
          <mxGeometry relative="1" as="geometry" />
        </mxCell>
        <mxCell id="EDPaD9Az1uUJM7cs_bUE-49" style="rounded=0;orthogonalLoop=1;jettySize=auto;html=1;endArrow=none;startFill=0;" edge="1" parent="1" source="EDPaD9Az1uUJM7cs_bUE-44" target="EDPaD9Az1uUJM7cs_bUE-46">
          <mxGeometry relative="1" as="geometry" />
        </mxCell>
        <mxCell id="EDPaD9Az1uUJM7cs_bUE-84" value="" style="rounded=0;orthogonalLoop=1;jettySize=auto;html=1;endArrow=none;startFill=0;" edge="1" parent="1" source="EDPaD9Az1uUJM7cs_bUE-44" target="EDPaD9Az1uUJM7cs_bUE-50">
          <mxGeometry relative="1" as="geometry" />
        </mxCell>
        <mxCell id="EDPaD9Az1uUJM7cs_bUE-44" value="物品种类" style="rounded=0;whiteSpace=wrap;html=1;" vertex="1" parent="1">
          <mxGeometry x="621" y="474" width="89" height="46" as="geometry" />
        </mxCell>
        <mxCell id="EDPaD9Az1uUJM7cs_bUE-45" value="种类id" style="ellipse;whiteSpace=wrap;html=1;" vertex="1" parent="1">
          <mxGeometry x="573" y="552.5" width="75" height="45" as="geometry" />
        </mxCell>
        <mxCell id="EDPaD9Az1uUJM7cs_bUE-46" value="种类名称" style="ellipse;whiteSpace=wrap;html=1;" vertex="1" parent="1">
          <mxGeometry x="673" y="548.5" width="75" height="45" as="geometry" />
        </mxCell>
        <mxCell id="EDPaD9Az1uUJM7cs_bUE-72" style="rounded=0;orthogonalLoop=1;jettySize=auto;html=1;endArrow=none;startFill=0;" edge="1" parent="1" source="EDPaD9Az1uUJM7cs_bUE-50" target="EDPaD9Az1uUJM7cs_bUE-54">
          <mxGeometry relative="1" as="geometry" />
        </mxCell>
        <mxCell id="EDPaD9Az1uUJM7cs_bUE-73" style="rounded=0;orthogonalLoop=1;jettySize=auto;html=1;entryX=0;entryY=1;entryDx=0;entryDy=0;endArrow=none;startFill=0;" edge="1" parent="1" source="EDPaD9Az1uUJM7cs_bUE-50" target="EDPaD9Az1uUJM7cs_bUE-66">
          <mxGeometry relative="1" as="geometry" />
        </mxCell>
        <mxCell id="EDPaD9Az1uUJM7cs_bUE-74" style="rounded=0;orthogonalLoop=1;jettySize=auto;html=1;entryX=0;entryY=0.5;entryDx=0;entryDy=0;exitX=0.5;exitY=0;exitDx=0;exitDy=0;endArrow=none;startFill=0;" edge="1" parent="1" source="EDPaD9Az1uUJM7cs_bUE-50" target="EDPaD9Az1uUJM7cs_bUE-67">
          <mxGeometry relative="1" as="geometry" />
        </mxCell>
        <mxCell id="EDPaD9Az1uUJM7cs_bUE-75" style="rounded=0;orthogonalLoop=1;jettySize=auto;html=1;entryX=0;entryY=0.5;entryDx=0;entryDy=0;exitX=0.5;exitY=0;exitDx=0;exitDy=0;endArrow=none;startFill=0;" edge="1" parent="1" source="EDPaD9Az1uUJM7cs_bUE-50" target="EDPaD9Az1uUJM7cs_bUE-68">
          <mxGeometry relative="1" as="geometry" />
        </mxCell>
        <mxCell id="EDPaD9Az1uUJM7cs_bUE-76" style="rounded=0;orthogonalLoop=1;jettySize=auto;html=1;entryX=0;entryY=0.5;entryDx=0;entryDy=0;exitX=0.5;exitY=0;exitDx=0;exitDy=0;endArrow=none;startFill=0;" edge="1" parent="1" source="EDPaD9Az1uUJM7cs_bUE-50" target="EDPaD9Az1uUJM7cs_bUE-69">
          <mxGeometry relative="1" as="geometry" />
        </mxCell>
        <mxCell id="EDPaD9Az1uUJM7cs_bUE-77" style="rounded=0;orthogonalLoop=1;jettySize=auto;html=1;entryX=0;entryY=0.5;entryDx=0;entryDy=0;exitX=0.5;exitY=0;exitDx=0;exitDy=0;endArrow=none;startFill=0;" edge="1" parent="1" source="EDPaD9Az1uUJM7cs_bUE-50" target="EDPaD9Az1uUJM7cs_bUE-70">
          <mxGeometry relative="1" as="geometry" />
        </mxCell>
        <mxCell id="EDPaD9Az1uUJM7cs_bUE-78" style="rounded=0;orthogonalLoop=1;jettySize=auto;html=1;exitX=0.5;exitY=0;exitDx=0;exitDy=0;endArrow=none;startFill=0;" edge="1" parent="1" source="EDPaD9Az1uUJM7cs_bUE-50" target="EDPaD9Az1uUJM7cs_bUE-53">
          <mxGeometry relative="1" as="geometry" />
        </mxCell>
        <mxCell id="EDPaD9Az1uUJM7cs_bUE-79" style="rounded=0;orthogonalLoop=1;jettySize=auto;html=1;exitX=0.5;exitY=0;exitDx=0;exitDy=0;endArrow=none;startFill=0;" edge="1" parent="1" source="EDPaD9Az1uUJM7cs_bUE-50" target="EDPaD9Az1uUJM7cs_bUE-52">
          <mxGeometry relative="1" as="geometry" />
        </mxCell>
        <mxCell id="EDPaD9Az1uUJM7cs_bUE-80" style="rounded=0;orthogonalLoop=1;jettySize=auto;html=1;entryX=1;entryY=0.5;entryDx=0;entryDy=0;exitX=0.5;exitY=0;exitDx=0;exitDy=0;endArrow=none;startFill=0;" edge="1" parent="1" source="EDPaD9Az1uUJM7cs_bUE-50" target="EDPaD9Az1uUJM7cs_bUE-51">
          <mxGeometry relative="1" as="geometry" />
        </mxCell>
        <mxCell id="EDPaD9Az1uUJM7cs_bUE-97" style="rounded=0;orthogonalLoop=1;jettySize=auto;html=1;entryX=0.5;entryY=0;entryDx=0;entryDy=0;endArrow=none;startFill=0;" edge="1" parent="1" source="EDPaD9Az1uUJM7cs_bUE-50" target="EDPaD9Az1uUJM7cs_bUE-89">
          <mxGeometry relative="1" as="geometry" />
        </mxCell>
        <mxCell id="EDPaD9Az1uUJM7cs_bUE-50" value="物品" style="rounded=0;whiteSpace=wrap;html=1;" vertex="1" parent="1">
          <mxGeometry x="696" y="312" width="92" height="51" as="geometry" />
        </mxCell>
        <mxCell id="EDPaD9Az1uUJM7cs_bUE-51" value="物品id" style="ellipse;whiteSpace=wrap;html=1;" vertex="1" parent="1">
          <mxGeometry x="552" y="271" width="75" height="45" as="geometry" />
        </mxCell>
        <mxCell id="EDPaD9Az1uUJM7cs_bUE-52" value="物品名称" style="ellipse;whiteSpace=wrap;html=1;" vertex="1" parent="1">
          <mxGeometry x="594" y="223" width="75" height="45" as="geometry" />
        </mxCell>
        <mxCell id="EDPaD9Az1uUJM7cs_bUE-53" value="物品规格" style="ellipse;whiteSpace=wrap;html=1;" vertex="1" parent="1">
          <mxGeometry x="645" y="178" width="75" height="45" as="geometry" />
        </mxCell>
        <mxCell id="EDPaD9Az1uUJM7cs_bUE-54" value="物品编码" style="ellipse;whiteSpace=wrap;html=1;" vertex="1" parent="1">
          <mxGeometry x="713" y="149" width="75" height="45" as="geometry" />
        </mxCell>
        <mxCell id="EDPaD9Az1uUJM7cs_bUE-55" value="商户手机号" style="ellipse;whiteSpace=wrap;html=1;" vertex="1" parent="1">
          <mxGeometry x="438" y="478" width="76" height="45" as="geometry" />
        </mxCell>
        <mxCell id="EDPaD9Az1uUJM7cs_bUE-66" value="物品数量" style="ellipse;whiteSpace=wrap;html=1;" vertex="1" parent="1">
          <mxGeometry x="797" y="145" width="75" height="45" as="geometry" />
        </mxCell>
        <mxCell id="EDPaD9Az1uUJM7cs_bUE-67" value="物品价格" style="ellipse;whiteSpace=wrap;html=1;" vertex="1" parent="1">
          <mxGeometry x="881" y="159" width="75" height="45" as="geometry" />
        </mxCell>
        <mxCell id="EDPaD9Az1uUJM7cs_bUE-68" value="物品品牌" style="ellipse;whiteSpace=wrap;html=1;" vertex="1" parent="1">
          <mxGeometry x="897" y="214" width="75" height="45" as="geometry" />
        </mxCell>
        <mxCell id="EDPaD9Az1uUJM7cs_bUE-69" value="物品总价" style="ellipse;whiteSpace=wrap;html=1;" vertex="1" parent="1">
          <mxGeometry x="893" y="263" width="75" height="45" as="geometry" />
        </mxCell>
        <mxCell id="EDPaD9Az1uUJM7cs_bUE-70" value="物品单价" style="ellipse;whiteSpace=wrap;html=1;" vertex="1" parent="1">
          <mxGeometry x="925" y="318" width="75" height="45" as="geometry" />
        </mxCell>
        <mxCell id="EDPaD9Az1uUJM7cs_bUE-85" value="1" style="text;html=1;align=center;verticalAlign=middle;resizable=0;points=[];autosize=1;strokeColor=none;fillColor=none;" vertex="1" parent="1">
          <mxGeometry x="691" y="436" width="25" height="26" as="geometry" />
        </mxCell>
        <mxCell id="EDPaD9Az1uUJM7cs_bUE-86" value="1" style="text;html=1;align=center;verticalAlign=middle;resizable=0;points=[];autosize=1;strokeColor=none;fillColor=none;" vertex="1" parent="1">
          <mxGeometry x="678" y="372" width="25" height="26" as="geometry" />
        </mxCell>
        <mxCell id="EDPaD9Az1uUJM7cs_bUE-87" value="1" style="text;html=1;align=center;verticalAlign=middle;resizable=0;points=[];autosize=1;strokeColor=none;fillColor=none;" vertex="1" parent="1">
          <mxGeometry x="627" y="327.5" width="25" height="26" as="geometry" />
        </mxCell>
        <mxCell id="EDPaD9Az1uUJM7cs_bUE-88" value="n" style="text;html=1;align=center;verticalAlign=middle;resizable=0;points=[];autosize=1;strokeColor=none;fillColor=none;" vertex="1" parent="1">
          <mxGeometry x="426" y="377" width="25" height="26" as="geometry" />
        </mxCell>
        <mxCell id="EDPaD9Az1uUJM7cs_bUE-93" value="" style="rounded=0;orthogonalLoop=1;jettySize=auto;html=1;endArrow=none;startFill=0;" edge="1" parent="1" source="EDPaD9Az1uUJM7cs_bUE-89" target="EDPaD9Az1uUJM7cs_bUE-90">
          <mxGeometry relative="1" as="geometry" />
        </mxCell>
        <mxCell id="EDPaD9Az1uUJM7cs_bUE-94" style="rounded=0;orthogonalLoop=1;jettySize=auto;html=1;endArrow=none;startFill=0;" edge="1" parent="1" source="EDPaD9Az1uUJM7cs_bUE-89" target="EDPaD9Az1uUJM7cs_bUE-91">
          <mxGeometry relative="1" as="geometry" />
        </mxCell>
        <mxCell id="EDPaD9Az1uUJM7cs_bUE-89" value="物品记录" style="rounded=0;whiteSpace=wrap;html=1;" vertex="1" parent="1">
          <mxGeometry x="824" y="482" width="89" height="46" as="geometry" />
        </mxCell>
        <mxCell id="EDPaD9Az1uUJM7cs_bUE-90" value="记录id" style="ellipse;whiteSpace=wrap;html=1;" vertex="1" parent="1">
          <mxGeometry x="812" y="568" width="75" height="45" as="geometry" />
        </mxCell>
        <mxCell id="EDPaD9Az1uUJM7cs_bUE-91" value="操作" style="ellipse;whiteSpace=wrap;html=1;" vertex="1" parent="1">
          <mxGeometry x="904" y="573" width="75" height="45" as="geometry" />
        </mxCell>
        <mxCell id="EDPaD9Az1uUJM7cs_bUE-98" value="1" style="text;html=1;align=center;verticalAlign=middle;resizable=0;points=[];autosize=1;strokeColor=none;fillColor=none;" vertex="1" parent="1">
          <mxGeometry x="753" y="370" width="25" height="26" as="geometry" />
        </mxCell>
        <mxCell id="EDPaD9Az1uUJM7cs_bUE-99" value="n" style="text;html=1;align=center;verticalAlign=middle;resizable=0;points=[];autosize=1;strokeColor=none;fillColor=none;" vertex="1" parent="1">
          <mxGeometry x="856" y="445" width="25" height="26" as="geometry" />
        </mxCell>
        <mxCell id="EDPaD9Az1uUJM7cs_bUE-107" style="rounded=0;orthogonalLoop=1;jettySize=auto;html=1;endArrow=none;startFill=0;" edge="1" parent="1" source="EDPaD9Az1uUJM7cs_bUE-101" target="EDPaD9Az1uUJM7cs_bUE-102">
          <mxGeometry relative="1" as="geometry" />
        </mxCell>
        <mxCell id="EDPaD9Az1uUJM7cs_bUE-108" style="rounded=0;orthogonalLoop=1;jettySize=auto;html=1;entryX=0.5;entryY=1;entryDx=0;entryDy=0;endArrow=none;startFill=0;" edge="1" parent="1" source="EDPaD9Az1uUJM7cs_bUE-101" target="EDPaD9Az1uUJM7cs_bUE-103">
          <mxGeometry relative="1" as="geometry">
            <mxPoint x="319.739162279212" y="195.39129904042125" as="targetPoint" />
          </mxGeometry>
        </mxCell>
        <mxCell id="EDPaD9Az1uUJM7cs_bUE-109" style="rounded=0;orthogonalLoop=1;jettySize=auto;html=1;entryX=0.5;entryY=1;entryDx=0;entryDy=0;endArrow=none;startFill=0;" edge="1" parent="1" source="EDPaD9Az1uUJM7cs_bUE-101" target="EDPaD9Az1uUJM7cs_bUE-104">
          <mxGeometry relative="1" as="geometry" />
        </mxCell>
        <mxCell id="EDPaD9Az1uUJM7cs_bUE-110" style="rounded=0;orthogonalLoop=1;jettySize=auto;html=1;entryX=0;entryY=1;entryDx=0;entryDy=0;endArrow=none;startFill=0;" edge="1" parent="1" source="EDPaD9Az1uUJM7cs_bUE-101" target="EDPaD9Az1uUJM7cs_bUE-105">
          <mxGeometry relative="1" as="geometry" />
        </mxCell>
        <mxCell id="EDPaD9Az1uUJM7cs_bUE-111" style="rounded=0;orthogonalLoop=1;jettySize=auto;html=1;endArrow=none;startFill=0;" edge="1" parent="1" source="EDPaD9Az1uUJM7cs_bUE-101" target="EDPaD9Az1uUJM7cs_bUE-106">
          <mxGeometry relative="1" as="geometry" />
        </mxCell>
        <mxCell id="EDPaD9Az1uUJM7cs_bUE-101" value="Api" style="rounded=0;whiteSpace=wrap;html=1;" vertex="1" parent="1">
          <mxGeometry x="308" y="235.5" width="92" height="51" as="geometry" />
        </mxCell>
        <mxCell id="EDPaD9Az1uUJM7cs_bUE-102" value="ApiId" style="ellipse;whiteSpace=wrap;html=1;" vertex="1" parent="1">
          <mxGeometry x="196" y="162.5" width="75" height="45" as="geometry" />
        </mxCell>
        <mxCell id="EDPaD9Az1uUJM7cs_bUE-103" value="Api描述" style="ellipse;whiteSpace=wrap;html=1;" vertex="1" parent="1">
          <mxGeometry x="242" y="104" width="75" height="45" as="geometry" />
        </mxCell>
        <mxCell id="EDPaD9Az1uUJM7cs_bUE-104" value="Api最近调用时间" style="ellipse;whiteSpace=wrap;html=1;" vertex="1" parent="1">
          <mxGeometry x="313.5" y="86.5" width="75" height="45" as="geometry" />
        </mxCell>
        <mxCell id="EDPaD9Az1uUJM7cs_bUE-105" value="Api白名单" style="ellipse;whiteSpace=wrap;html=1;" vertex="1" parent="1">
          <mxGeometry x="418" y="84" width="75" height="45" as="geometry" />
        </mxCell>
        <mxCell id="EDPaD9Az1uUJM7cs_bUE-106" value="ApiToken" style="ellipse;whiteSpace=wrap;html=1;" vertex="1" parent="1">
          <mxGeometry x="431" y="145" width="75" height="45" as="geometry" />
        </mxCell>
      </root>
    </mxGraphModel>
  </diagram>
</mxfile>
